<svg width="28" height="26" viewBox="0 0 28 26" fill="none" xmlns="http://www.w3.org/2000/svg">
<g id="twitter" clip-path="url(#clip0_56_10)">
<path id="Vector" d="M25.0588 6.53698C25.0757 6.81354 25.0757 7.09011 25.0757 7.36923C25.0757 15.874 19.3402 25.6827 8.85263 25.6827V25.6776C5.75457 25.6827 2.72086 24.6809 0.112793 22.7921C0.563277 22.8532 1.01602 22.8838 1.46989 22.8851C4.03731 22.8877 6.53134 21.9152 8.55118 20.1245C6.11134 20.0723 3.97183 18.2765 3.22441 15.6548C4.07908 15.8409 4.95973 15.8027 5.7986 15.5439C3.1386 14.9373 1.22489 12.299 1.22489 9.23511V9.15354C2.01747 9.65188 2.90489 9.92845 3.81263 9.95903C1.30731 8.06894 0.535051 4.30658 2.04795 1.36501C4.94279 5.38609 9.21392 7.8306 13.7989 8.08933C13.3394 5.85384 13.9671 3.51129 15.4484 1.93982C17.7449 -0.497044 21.3567 -0.372142 23.5154 2.21894C24.7923 1.93472 26.0162 1.4058 27.1362 0.656388C26.7105 2.14629 25.8197 3.41188 24.6297 4.21609C25.7599 4.0657 26.8641 3.72413 27.9039 3.20286C27.1384 4.49776 26.1742 5.6257 25.0588 6.53698Z" fill="#1D9BF0"/>
</g>
<defs>
<clipPath id="clip0_56_10">
<rect width="28" height="26" fill="white"/>
</clipPath>
</defs>
</svg>
